<mxfile host="Electron" agent="Mozilla/5.0 (X11; Linux x86_64) AppleWebKit/537.36 (KHTML, like Gecko) draw.io/24.7.8 Chrome/128.0.6613.36 Electron/32.0.1 Safari/537.36" version="24.7.8">
  <diagram id="C5RBs43oDa-KdzZeNtuy" name="Page-1">
    <mxGraphModel dx="1017" dy="792" grid="1" gridSize="10" guides="1" tooltips="1" connect="1" arrows="1" fold="1" page="1" pageScale="1" pageWidth="827" pageHeight="1169" math="0" shadow="0">
      <root>
        <mxCell id="WIyWlLk6GJQsqaUBKTNV-0" />
        <mxCell id="WIyWlLk6GJQsqaUBKTNV-1" parent="WIyWlLk6GJQsqaUBKTNV-0" />
        <mxCell id="1Q-BHkRfI8R_v9FOW4Js-0" value="&lt;font style=&quot;font-size: 18px;&quot;&gt;MulitWinchController&lt;/font&gt;" style="whiteSpace=wrap;html=1;aspect=fixed;" parent="WIyWlLk6GJQsqaUBKTNV-1" vertex="1">
          <mxGeometry x="201" y="210" width="330" height="330" as="geometry" />
        </mxCell>
        <mxCell id="1Q-BHkRfI8R_v9FOW4Js-1" value="set_torque" style="shape=parallelogram;perimeter=parallelogramPerimeter;whiteSpace=wrap;html=1;fixedSize=1;" parent="WIyWlLk6GJQsqaUBKTNV-1" vertex="1">
          <mxGeometry x="44" y="220" width="120" height="60" as="geometry" />
        </mxCell>
        <mxCell id="1Q-BHkRfI8R_v9FOW4Js-2" value="set_speed" style="shape=parallelogram;perimeter=parallelogramPerimeter;whiteSpace=wrap;html=1;fixedSize=1;" parent="WIyWlLk6GJQsqaUBKTNV-1" vertex="1">
          <mxGeometry x="44" y="300" width="120" height="60" as="geometry" />
        </mxCell>
        <mxCell id="1Q-BHkRfI8R_v9FOW4Js-3" value="" style="endArrow=classic;html=1;rounded=0;exitX=1;exitY=0.5;exitDx=0;exitDy=0;entryX=-0.003;entryY=0.121;entryDx=0;entryDy=0;entryPerimeter=0;" parent="WIyWlLk6GJQsqaUBKTNV-1" source="1Q-BHkRfI8R_v9FOW4Js-1" target="1Q-BHkRfI8R_v9FOW4Js-0" edge="1">
          <mxGeometry width="50" height="50" relative="1" as="geometry">
            <mxPoint x="364" y="420" as="sourcePoint" />
            <mxPoint x="414" y="370" as="targetPoint" />
          </mxGeometry>
        </mxCell>
        <mxCell id="1Q-BHkRfI8R_v9FOW4Js-4" value="" style="endArrow=classic;html=1;rounded=0;exitX=1;exitY=0.5;exitDx=0;exitDy=0;" parent="WIyWlLk6GJQsqaUBKTNV-1" source="1Q-BHkRfI8R_v9FOW4Js-2" edge="1">
          <mxGeometry width="50" height="50" relative="1" as="geometry">
            <mxPoint x="364" y="420" as="sourcePoint" />
            <mxPoint x="200" y="330" as="targetPoint" />
          </mxGeometry>
        </mxCell>
        <mxCell id="1Q-BHkRfI8R_v9FOW4Js-5" value="set_depower" style="shape=parallelogram;perimeter=parallelogramPerimeter;whiteSpace=wrap;html=1;fixedSize=1;" parent="WIyWlLk6GJQsqaUBKTNV-1" vertex="1">
          <mxGeometry x="44" y="380" width="120" height="60" as="geometry" />
        </mxCell>
        <mxCell id="1Q-BHkRfI8R_v9FOW4Js-6" value="set_steering" style="shape=parallelogram;perimeter=parallelogramPerimeter;whiteSpace=wrap;html=1;fixedSize=1;" parent="WIyWlLk6GJQsqaUBKTNV-1" vertex="1">
          <mxGeometry x="44" y="460" width="120" height="60" as="geometry" />
        </mxCell>
        <mxCell id="1Q-BHkRfI8R_v9FOW4Js-7" value="" style="endArrow=classic;html=1;rounded=0;exitX=1;exitY=0.5;exitDx=0;exitDy=0;" parent="WIyWlLk6GJQsqaUBKTNV-1" source="1Q-BHkRfI8R_v9FOW4Js-5" edge="1">
          <mxGeometry width="50" height="50" relative="1" as="geometry">
            <mxPoint x="364" y="420" as="sourcePoint" />
            <mxPoint x="200" y="410" as="targetPoint" />
          </mxGeometry>
        </mxCell>
        <mxCell id="1Q-BHkRfI8R_v9FOW4Js-8" value="" style="endArrow=classic;html=1;rounded=0;exitX=1;exitY=0.5;exitDx=0;exitDy=0;" parent="WIyWlLk6GJQsqaUBKTNV-1" source="1Q-BHkRfI8R_v9FOW4Js-6" edge="1">
          <mxGeometry width="50" height="50" relative="1" as="geometry">
            <mxPoint x="364" y="420" as="sourcePoint" />
            <mxPoint x="200" y="490" as="targetPoint" />
          </mxGeometry>
        </mxCell>
        <mxCell id="1Q-BHkRfI8R_v9FOW4Js-16" value="Winch_L" style="rounded=0;whiteSpace=wrap;html=1;" parent="WIyWlLk6GJQsqaUBKTNV-1" vertex="1">
          <mxGeometry x="640" y="210" width="120" height="60" as="geometry" />
        </mxCell>
        <mxCell id="A10irX5c-ZqoLDYSONGR-0" value="" style="endArrow=classic;html=1;rounded=0;entryX=0;entryY=0.5;entryDx=0;entryDy=0;exitX=0.997;exitY=0.091;exitDx=0;exitDy=0;exitPerimeter=0;" parent="WIyWlLk6GJQsqaUBKTNV-1" source="1Q-BHkRfI8R_v9FOW4Js-0" target="1Q-BHkRfI8R_v9FOW4Js-16" edge="1">
          <mxGeometry width="50" height="50" relative="1" as="geometry">
            <mxPoint x="410" y="430" as="sourcePoint" />
            <mxPoint x="460" y="380" as="targetPoint" />
          </mxGeometry>
        </mxCell>
        <mxCell id="A10irX5c-ZqoLDYSONGR-1" value="set_torque_L" style="edgeLabel;html=1;align=center;verticalAlign=middle;resizable=0;points=[];" parent="A10irX5c-ZqoLDYSONGR-0" vertex="1" connectable="0">
          <mxGeometry x="-0.3037" y="2" relative="1" as="geometry">
            <mxPoint x="12" y="-7" as="offset" />
          </mxGeometry>
        </mxCell>
        <mxCell id="A10irX5c-ZqoLDYSONGR-3" value="" style="endArrow=classic;html=1;rounded=0;entryX=1;entryY=0.242;entryDx=0;entryDy=0;entryPerimeter=0;" parent="WIyWlLk6GJQsqaUBKTNV-1" target="1Q-BHkRfI8R_v9FOW4Js-0" edge="1">
          <mxGeometry width="50" height="50" relative="1" as="geometry">
            <mxPoint x="656" y="280" as="sourcePoint" />
            <mxPoint x="600" y="380" as="targetPoint" />
            <Array as="points">
              <mxPoint x="656" y="270" />
              <mxPoint x="656" y="280" />
              <mxPoint x="656" y="290" />
            </Array>
          </mxGeometry>
        </mxCell>
        <mxCell id="A10irX5c-ZqoLDYSONGR-4" value="speed_L" style="edgeLabel;html=1;align=center;verticalAlign=middle;resizable=0;points=[];" parent="A10irX5c-ZqoLDYSONGR-3" vertex="1" connectable="0">
          <mxGeometry x="0.1454" y="-1" relative="1" as="geometry">
            <mxPoint x="-3" y="-9" as="offset" />
          </mxGeometry>
        </mxCell>
        <mxCell id="A10irX5c-ZqoLDYSONGR-5" value="" style="endArrow=classic;html=1;rounded=0;exitX=0.356;exitY=1;exitDx=0;exitDy=0;exitPerimeter=0;" parent="WIyWlLk6GJQsqaUBKTNV-1" source="1Q-BHkRfI8R_v9FOW4Js-16" edge="1">
          <mxGeometry width="50" height="50" relative="1" as="geometry">
            <mxPoint x="550" y="430" as="sourcePoint" />
            <mxPoint x="530" y="310" as="targetPoint" />
            <Array as="points">
              <mxPoint x="683" y="310" />
            </Array>
          </mxGeometry>
        </mxCell>
        <mxCell id="A10irX5c-ZqoLDYSONGR-6" value="length_L" style="edgeLabel;html=1;align=center;verticalAlign=middle;resizable=0;points=[];" parent="A10irX5c-ZqoLDYSONGR-5" vertex="1" connectable="0">
          <mxGeometry x="0.3264" y="2" relative="1" as="geometry">
            <mxPoint y="-10" as="offset" />
          </mxGeometry>
        </mxCell>
        <mxCell id="v7gLK80PZPXIAIXXdGfH-0" value="Winch_R" style="rounded=0;whiteSpace=wrap;html=1;" vertex="1" parent="WIyWlLk6GJQsqaUBKTNV-1">
          <mxGeometry x="640" y="320" width="120" height="60" as="geometry" />
        </mxCell>
        <mxCell id="v7gLK80PZPXIAIXXdGfH-1" value="" style="endArrow=classic;html=1;rounded=0;entryX=0;entryY=0.5;entryDx=0;entryDy=0;exitX=0.997;exitY=0.091;exitDx=0;exitDy=0;exitPerimeter=0;" edge="1" parent="WIyWlLk6GJQsqaUBKTNV-1" target="v7gLK80PZPXIAIXXdGfH-0">
          <mxGeometry width="50" height="50" relative="1" as="geometry">
            <mxPoint x="530" y="350" as="sourcePoint" />
            <mxPoint x="460" y="490" as="targetPoint" />
          </mxGeometry>
        </mxCell>
        <mxCell id="v7gLK80PZPXIAIXXdGfH-2" value="set_torque_R" style="edgeLabel;html=1;align=center;verticalAlign=middle;resizable=0;points=[];" vertex="1" connectable="0" parent="v7gLK80PZPXIAIXXdGfH-1">
          <mxGeometry x="-0.3037" y="2" relative="1" as="geometry">
            <mxPoint x="12" y="-7" as="offset" />
          </mxGeometry>
        </mxCell>
        <mxCell id="v7gLK80PZPXIAIXXdGfH-3" value="" style="endArrow=classic;html=1;rounded=0;entryX=1;entryY=0.242;entryDx=0;entryDy=0;entryPerimeter=0;" edge="1" parent="WIyWlLk6GJQsqaUBKTNV-1">
          <mxGeometry width="50" height="50" relative="1" as="geometry">
            <mxPoint x="656" y="390" as="sourcePoint" />
            <mxPoint x="531" y="400" as="targetPoint" />
            <Array as="points">
              <mxPoint x="656" y="380" />
              <mxPoint x="656" y="390" />
              <mxPoint x="656" y="400" />
            </Array>
          </mxGeometry>
        </mxCell>
        <mxCell id="v7gLK80PZPXIAIXXdGfH-4" value="speed_R" style="edgeLabel;html=1;align=center;verticalAlign=middle;resizable=0;points=[];" vertex="1" connectable="0" parent="v7gLK80PZPXIAIXXdGfH-3">
          <mxGeometry x="0.1454" y="-1" relative="1" as="geometry">
            <mxPoint x="-3" y="-9" as="offset" />
          </mxGeometry>
        </mxCell>
        <mxCell id="v7gLK80PZPXIAIXXdGfH-5" value="" style="endArrow=classic;html=1;rounded=0;exitX=0.356;exitY=1;exitDx=0;exitDy=0;exitPerimeter=0;" edge="1" parent="WIyWlLk6GJQsqaUBKTNV-1" source="v7gLK80PZPXIAIXXdGfH-0">
          <mxGeometry width="50" height="50" relative="1" as="geometry">
            <mxPoint x="550" y="540" as="sourcePoint" />
            <mxPoint x="530" y="420" as="targetPoint" />
            <Array as="points">
              <mxPoint x="683" y="420" />
            </Array>
          </mxGeometry>
        </mxCell>
        <mxCell id="v7gLK80PZPXIAIXXdGfH-6" value="length_R" style="edgeLabel;html=1;align=center;verticalAlign=middle;resizable=0;points=[];" vertex="1" connectable="0" parent="v7gLK80PZPXIAIXXdGfH-5">
          <mxGeometry x="0.3264" y="2" relative="1" as="geometry">
            <mxPoint y="-10" as="offset" />
          </mxGeometry>
        </mxCell>
        <mxCell id="v7gLK80PZPXIAIXXdGfH-7" value="Winch_P" style="rounded=0;whiteSpace=wrap;html=1;" vertex="1" parent="WIyWlLk6GJQsqaUBKTNV-1">
          <mxGeometry x="641" y="430" width="120" height="60" as="geometry" />
        </mxCell>
        <mxCell id="v7gLK80PZPXIAIXXdGfH-8" value="" style="endArrow=classic;html=1;rounded=0;entryX=0;entryY=0.5;entryDx=0;entryDy=0;exitX=0.997;exitY=0.091;exitDx=0;exitDy=0;exitPerimeter=0;" edge="1" parent="WIyWlLk6GJQsqaUBKTNV-1" target="v7gLK80PZPXIAIXXdGfH-7">
          <mxGeometry width="50" height="50" relative="1" as="geometry">
            <mxPoint x="531" y="460" as="sourcePoint" />
            <mxPoint x="461" y="600" as="targetPoint" />
          </mxGeometry>
        </mxCell>
        <mxCell id="v7gLK80PZPXIAIXXdGfH-9" value="set_torque_P" style="edgeLabel;html=1;align=center;verticalAlign=middle;resizable=0;points=[];" vertex="1" connectable="0" parent="v7gLK80PZPXIAIXXdGfH-8">
          <mxGeometry x="-0.3037" y="2" relative="1" as="geometry">
            <mxPoint x="12" y="-7" as="offset" />
          </mxGeometry>
        </mxCell>
        <mxCell id="v7gLK80PZPXIAIXXdGfH-10" value="" style="endArrow=classic;html=1;rounded=0;entryX=1;entryY=0.242;entryDx=0;entryDy=0;entryPerimeter=0;" edge="1" parent="WIyWlLk6GJQsqaUBKTNV-1">
          <mxGeometry width="50" height="50" relative="1" as="geometry">
            <mxPoint x="657" y="500" as="sourcePoint" />
            <mxPoint x="532" y="510" as="targetPoint" />
            <Array as="points">
              <mxPoint x="657" y="490" />
              <mxPoint x="657" y="500" />
              <mxPoint x="657" y="510" />
            </Array>
          </mxGeometry>
        </mxCell>
        <mxCell id="v7gLK80PZPXIAIXXdGfH-11" value="speed_P" style="edgeLabel;html=1;align=center;verticalAlign=middle;resizable=0;points=[];" vertex="1" connectable="0" parent="v7gLK80PZPXIAIXXdGfH-10">
          <mxGeometry x="0.1454" y="-1" relative="1" as="geometry">
            <mxPoint x="-3" y="-9" as="offset" />
          </mxGeometry>
        </mxCell>
        <mxCell id="v7gLK80PZPXIAIXXdGfH-12" value="" style="endArrow=classic;html=1;rounded=0;exitX=0.356;exitY=1;exitDx=0;exitDy=0;exitPerimeter=0;" edge="1" parent="WIyWlLk6GJQsqaUBKTNV-1" source="v7gLK80PZPXIAIXXdGfH-7">
          <mxGeometry width="50" height="50" relative="1" as="geometry">
            <mxPoint x="551" y="650" as="sourcePoint" />
            <mxPoint x="531" y="530" as="targetPoint" />
            <Array as="points">
              <mxPoint x="684" y="530" />
            </Array>
          </mxGeometry>
        </mxCell>
        <mxCell id="v7gLK80PZPXIAIXXdGfH-13" value="length_P" style="edgeLabel;html=1;align=center;verticalAlign=middle;resizable=0;points=[];" vertex="1" connectable="0" parent="v7gLK80PZPXIAIXXdGfH-12">
          <mxGeometry x="0.3264" y="2" relative="1" as="geometry">
            <mxPoint y="-10" as="offset" />
          </mxGeometry>
        </mxCell>
        <mxCell id="v7gLK80PZPXIAIXXdGfH-16" value="Either set_torque or set_speed must be provided." style="text;html=1;align=center;verticalAlign=middle;resizable=0;points=[];autosize=1;strokeColor=none;fillColor=none;" vertex="1" parent="WIyWlLk6GJQsqaUBKTNV-1">
          <mxGeometry x="44" y="164" width="290" height="30" as="geometry" />
        </mxCell>
        <mxCell id="v7gLK80PZPXIAIXXdGfH-17" value="The power winch acts at the front of the kite." style="text;html=1;align=center;verticalAlign=middle;resizable=0;points=[];autosize=1;strokeColor=none;fillColor=none;" vertex="1" parent="WIyWlLk6GJQsqaUBKTNV-1">
          <mxGeometry x="500" y="550" width="260" height="30" as="geometry" />
        </mxCell>
      </root>
    </mxGraphModel>
  </diagram>
</mxfile>
